<?xml version="1.0" encoding="utf-8"?>
<!-- Generator: Adobe Illustrator 16.0.4, SVG Export Plug-In . SVG Version: 6.00 Build 0)  -->
<!DOCTYPE svg PUBLIC "-//W3C//DTD SVG 1.1//EN" "http://www.w3.org/Graphics/SVG/1.1/DTD/svg11.dtd">
<svg version="1.1" id="Camada_1" xmlns="http://www.w3.org/2000/svg" xmlns:xlink="http://www.w3.org/1999/xlink" x="0px" y="0px"
	 width="103px" height="36.667px" viewBox="0 0 103 36.667" enable-background="new 0 0 103 36.667" xml:space="preserve">
<path fill-rule="evenodd" clip-rule="evenodd" fill="#1E345D" d="M1.784,11.106L17.605,1.022l15.868,10.094h-6.231
	c3.603,5.329,2.374,10.505-0.029,13.784h6.177L17.615,35.458L1.87,24.891l6.137-0.008c-2.696-3.746-3.376-8.627-0.01-13.767
	L1.784,11.106L1.784,11.106z M12.684,25.206c0.18-3.054,2.062-5.356,5.229-5.284c2.61,0.291,4.323,2.131,4.596,5.245
	c1.013-3.132-0.567-6.494-4.823-6.73C13.45,18.656,11.738,21.616,12.684,25.206L12.684,25.206z M23.62,24.844
	c2.438-4.302-1.514-9.612-5.645-9.339c-4.745-0.44-9.169,5.037-6.34,9.363c-1.051-4.846,2.85-7.919,6.453-7.61
	C20.901,17.501,24.209,19.909,23.62,24.844L23.62,24.844z M25.37,23.798c2.587-5.418-2.138-12.21-7.504-11.854
	c-6.159-0.573-10.884,6.854-7.981,11.833c-1.365-5.652,3.559-10.066,8.238-9.666C21.78,14.43,26.143,17.388,25.37,23.798
	L25.37,23.798z M26.869,23.274c3.291-7.953-1.881-15.715-9.362-15.605c-7.329,0.273-12.482,7.645-9.153,15.578
	C4.759,7.879,29.158,4.909,26.869,23.274L26.869,23.274z M20.042,21.682l-0.021,4.51h-4.926V21.7
	c-1.079,0.773-1.647,1.996-1.647,3.416c0,2.359,1.808,4.234,4.181,4.234c2.374,0,4.132-1.919,4.132-4.279
	C21.762,23.615,21.157,22.454,20.042,21.682z"/>
<path fill-rule="evenodd" clip-rule="evenodd" d="M35.643,11.852h3.445v6.166c0,0.906,0.02,1.553,0.068,1.955
	c0.045,0.393,0.123,0.721,0.236,0.984c0.129,0.322,0.363,0.571,0.689,0.743c0.329,0.166,0.732,0.257,1.205,0.257
	c0.47,0,0.868-0.091,1.199-0.257c0.322-0.172,0.559-0.421,0.693-0.743c0.109-0.264,0.19-0.592,0.237-0.984
	c0.043-0.401,0.067-1.049,0.067-1.955v-0.865v-5.301h3.436v6.701c0,1.39-0.082,2.417-0.252,3.075
	c-0.168,0.662-0.448,1.226-0.848,1.694c-0.432,0.509-1.028,0.897-1.779,1.151c-0.756,0.261-1.677,0.386-2.753,0.386
	c-1.085,0-2.004-0.125-2.758-0.386c-0.753-0.254-1.35-0.643-1.789-1.151c-0.392-0.469-0.67-1.032-0.843-1.694
	c-0.17-0.657-0.254-1.685-0.254-3.075v-1.315V11.852L35.643,11.852z M48.638,24.522v-12.67h3.333l4.784,6.518
	c0.092,0.135,0.245,0.397,0.458,0.802c0.208,0.399,0.439,0.879,0.695,1.435c-0.068-0.529-0.12-0.995-0.151-1.402
	c-0.032-0.413-0.048-0.776-0.048-1.094v-6.258h3.316v12.67h-3.316l-4.785-6.541c-0.098-0.136-0.25-0.4-0.465-0.802
	c-0.208-0.399-0.437-0.871-0.686-1.416c0.068,0.533,0.118,1.005,0.15,1.416c0.033,0.401,0.048,0.771,0.048,1.084v6.258H48.638
	L48.638,24.522z M62.923,24.522v-12.67h3.491v12.67H62.923L62.923,24.522z M68.098,24.522v-12.67h7.76v2.78h-4.392v2.194h4.146
	v2.724h-4.146v4.973H68.098L68.098,24.522z M89.847,18.214c0,0.914-0.17,1.769-0.502,2.559c-0.331,0.799-0.822,1.512-1.462,2.14
	c-0.65,0.628-1.385,1.104-2.216,1.444c-0.831,0.335-1.695,0.503-2.591,0.503c-0.905,0-1.773-0.168-2.595-0.503
	c-0.833-0.34-1.561-0.816-2.188-1.444c-0.652-0.628-1.146-1.341-1.487-2.146c-0.337-0.796-0.506-1.649-0.506-2.552
	c0-0.907,0.169-1.757,0.506-2.559c0.341-0.797,0.835-1.512,1.487-2.143c0.628-0.621,1.355-1.101,2.188-1.439
	c0.821-0.338,1.689-0.503,2.595-0.503c0.903,0,1.771,0.166,2.602,0.503c0.835,0.338,1.566,0.818,2.205,1.439
	c0.634,0.624,1.117,1.338,1.457,2.143C89.677,16.453,89.847,17.307,89.847,18.214L89.847,18.214z M83.076,21.936
	c0.962,0,1.751-0.353,2.379-1.055c0.628-0.707,0.936-1.589,0.936-2.667c0-1.061-0.314-1.947-0.948-2.655
	c-0.636-0.712-1.426-1.067-2.366-1.067c-0.953,0-1.748,0.354-2.372,1.062c-0.627,0.701-0.938,1.594-0.938,2.66
	c0,1.088,0.303,1.976,0.921,2.676C81.303,21.588,82.104,21.936,83.076,21.936L83.076,21.936z M91.111,24.522v-12.67h3.609
	c1.41,0,2.398,0.067,2.951,0.195c0.557,0.131,1.034,0.35,1.442,0.655c0.457,0.35,0.806,0.792,1.054,1.32
	c0.244,0.542,0.363,1.133,0.363,1.78c0,0.979-0.236,1.776-0.719,2.392c-0.48,0.613-1.183,1.022-2.106,1.222l3.449,5.106h-3.897
	l-2.911-4.96v4.96H91.111L91.111,24.522z M94.347,17.842h0.645c0.741,0,1.281-0.128,1.629-0.38c0.343-0.255,0.511-0.654,0.511-1.195
	c0-0.637-0.157-1.085-0.481-1.356c-0.315-0.266-0.855-0.399-1.611-0.399h-0.691V17.842L94.347,17.842z"/>
<g>
	<path d="M59.339,31.671c0-0.832,0.125-1.53,0.374-2.095c0.186-0.416,0.439-0.789,0.76-1.12c0.321-0.33,0.673-0.575,1.056-0.735
		c0.509-0.215,1.096-0.323,1.761-0.323c1.204,0,2.167,0.373,2.888,1.12c0.723,0.746,1.084,1.784,1.084,3.114
		c0,1.318-0.358,2.35-1.075,3.095c-0.717,0.744-1.675,1.117-2.875,1.117c-1.214,0-2.18-0.371-2.897-1.111
		C59.698,33.991,59.339,32.971,59.339,31.671z M61.039,31.615c0,0.925,0.214,1.626,0.641,2.103c0.427,0.478,0.97,0.716,1.627,0.716
		c0.658,0,1.197-0.236,1.619-0.71c0.421-0.474,0.632-1.184,0.632-2.131c0-0.937-0.205-1.634-0.615-2.095s-0.956-0.69-1.635-0.69
		c-0.68,0-1.228,0.232-1.644,0.698C61.247,29.973,61.039,30.676,61.039,31.615z"/>
	<path d="M68.565,35.704v-8.167h1.604l3.343,5.454v-5.454h1.532v8.167H73.39l-3.292-5.326v5.326H68.565z"/>
	<path d="M76.833,35.704v-8.101h1.648v6.725h4.101v1.376H76.833z"/>
	<path d="M83.708,35.704v-8.167h1.648v8.167H83.708z"/>
	<path d="M86.944,35.704v-8.167h1.604l3.343,5.454v-5.454h1.532v8.167h-1.655l-3.292-5.326v5.326H86.944z"/>
	<path d="M95.167,35.704v-8.167h6.056v1.382h-4.406v1.811h4.1v1.376h-4.1v2.223h4.562v1.376H95.167z"/>
</g>
<g>
</g>
<g>
</g>
<g>
</g>
<g>
</g>
<g>
</g>
<g>
</g>
</svg>
